<?xml version="1.0" standalone="no"?>
<!DOCTYPE svg PUBLIC "-//W3C//DTD SVG 20010904//EN"
 "http://www.w3.org/TR/2001/REC-SVG-20010904/DTD/svg10.dtd">
<svg version="1.0" xmlns="http://www.w3.org/2000/svg"
 width="654.000000pt" height="214.000000pt" viewBox="0 0 654.000000 214.000000"
 preserveAspectRatio="xMidYMid meet">
<metadata>
Created by potrace 1.16, written by Peter Selinger 2001-2019
</metadata>
<g transform="translate(0.000000,214.000000) scale(0.100000,-0.100000)"
fill="#000000" stroke="none">
<path d="M0 1070 l0 -1070 3270 0 3270 0 0 959 c0 631 -3 962 -10 966 -7 4 -7
12 0 25 5 10 10 57 10 104 l0 86 -3270 0 -3270 0 0 -1070z m5918 855 c45 -14
75 -38 251 -206 111 -107 208 -207 218 -227 16 -33 18 -71 21 -329 l3 -293
-91 0 -90 0 0 250 0 250 -155 0 c-238 0 -238 0 -245 229 l-5 166 -301 0 c-240
0 -304 -3 -317 -14 -16 -12 -17 -75 -17 -716 0 -641 1 -704 17 -716 10 -9 50
-15 115 -17 l99 -4 -3 -81 -3 -82 -115 1 c-108 0 -119 2 -168 29 -61 33 -108
97 -117 159 -3 22 -5 358 -3 746 3 635 5 708 20 735 28 50 77 93 131 114 48
18 77 20 378 20 264 1 335 -2 377 -14z m-5028 -180 c81 -20 160 -51 213 -85
l47 -30 0 -95 c0 -52 -2 -95 -4 -95 -3 0 -39 24 -80 54 -161 115 -342 145
-515 84 -118 -42 -206 -147 -247 -298 -26 -93 -27 -377 -1 -470 43 -156 122
-258 231 -299 130 -48 289 -48 414 2 l57 22 3 193 2 192 -135 0 -135 0 0 75 0
75 220 0 220 0 0 -297 0 -298 -48 -32 c-153 -104 -366 -147 -558 -112 -144 26
-287 128 -369 264 -98 163 -131 453 -79 688 36 163 138 319 259 396 127 80
334 107 505 66z m1092 -16 c70 -15 161 -64 200 -108 111 -126 128 -403 33
-550 -79 -124 -207 -171 -467 -171 l-98 0 -2 -278 -3 -277 -82 -3 -83 -3 0
701 0 700 225 0 c125 0 247 -5 277 -11z m1121 -17 c320 -87 457 -336 425 -772
-19 -266 -114 -429 -300 -519 -123 -59 -203 -72 -485 -78 l-243 -6 0 702 0
703 263 -4 c227 -4 272 -8 340 -26z m1407 -52 l0 -80 -270 0 -270 0 0 -205 0
-205 245 0 245 0 0 -80 0 -80 -245 0 -245 0 -2 -332 -3 -333 -82 -3 -83 -3 0
701 0 700 355 0 355 0 0 -80z m1191 -1070 c24 -13 49 -61 49 -95 0 -36 -45
-36 -54 0 -4 16 -16 27 -33 31 -55 14 -83 -30 -83 -133 0 -107 17 -143 71
-143 30 0 45 14 54 52 6 24 4 27 -22 30 -24 3 -28 8 -31 41 l-3 37 57 0 57 0
-5 -72 c-6 -89 -28 -135 -73 -154 -54 -22 -104 -1 -132 56 -20 38 -23 60 -23
150 0 112 19 177 57 199 23 13 89 14 114 1z m220 0 c45 -13 59 -42 59 -126 0
-94 -17 -122 -80 -130 l-50 -7 0 -73 c0 -72 -1 -74 -25 -74 l-25 0 0 203 c0
112 3 207 7 210 10 10 73 8 114 -3z m260 -16 c30 -27 42 -83 42 -190 0 -159
-33 -207 -143 -202 l-55 3 -3 195 c-1 107 0 201 3 209 8 19 131 8 156 -15z
m249 -14 l0 -40 -55 0 -55 0 0 -45 0 -45 50 0 50 0 0 -35 0 -35 -50 0 -49 0
-3 -87 c-3 -86 -3 -88 -28 -88 l-25 0 -3 195 c-1 107 0 200 2 207 4 9 30 13
86 13 l80 0 0 -40z"/>
<path d="M1650 1320 l0 -260 121 0 c154 0 200 12 254 64 56 54 80 130 72 229
-10 115 -58 186 -146 216 -19 6 -94 11 -167 11 l-134 0 0 -260z"/>
<path d="M2670 1040 l0 -540 128 0 c335 1 478 90 539 336 21 85 23 312 4 399
-41 186 -148 298 -319 334 -29 6 -120 11 -202 11 l-150 0 0 -540z"/>
<path d="M6070 390 l0 -130 40 0 c51 0 60 20 60 136 0 107 -8 124 -60 124
l-40 0 0 -130z"/>
</g>
</svg>
